<?xml version="1.0" standalone="no"?>
<!DOCTYPE svg PUBLIC "-//W3C//DTD SVG 20010904//EN"
 "http://www.w3.org/TR/2001/REC-SVG-20010904/DTD/svg10.dtd">
<svg version="1.0" xmlns="http://www.w3.org/2000/svg"
 width="185.000000pt" height="185.000000pt" viewBox="0 0 185.000000 185.000000"
 preserveAspectRatio="xMidYMid meet">
<metadata>
Created by potrace 1.14, written by Peter Selinger 2001-2017
</metadata>
<g transform="translate(0.000000,185.000000) scale(0.100000,-0.100000)"
fill="#000000" stroke="none">
<path d="M879 1776 c-2 -2 -26 -7 -54 -10 -46 -6 -97 -19 -135 -33 -8 -3 -19
-7 -25 -9 -5 -1 -26 -9 -46 -18 -20 -8 -40 -12 -44 -8 -5 4 -5 1 -1 -5 6 -12
-5 -18 -26 -14 -5 0 -8 -3 -8 -9 0 -5 -8 -7 -17 -3 -10 3 -15 2 -11 -2 8 -8
-20 -34 -33 -31 -4 0 -16 -10 -28 -24 -11 -14 -20 -22 -21 -18 0 9 -116 -109
-160 -163 -19 -24 -34 -48 -32 -53 2 -4 -4 -6 -13 -2 -9 3 -13 2 -10 -4 8 -12
-43 -120 -57 -120 -5 0 -7 -4 -4 -9 3 -5 -2 -33 -11 -62 -49 -159 -52 -351 -9
-493 8 -27 13 -53 10 -58 -3 -4 -1 -8 5 -8 10 0 44 -81 44 -105 0 -8 4 -12 9
-9 4 3 14 -8 20 -23 23 -52 108 -155 174 -214 42 -36 151 -109 163 -109 6 0
11 -5 11 -12 0 -6 3 -9 6 -5 3 3 22 -3 42 -14 20 -10 51 -22 69 -25 18 -3 31
-9 29 -13 -2 -3 12 -7 32 -9 20 -1 38 -6 42 -10 5 -7 23 -8 143 -11 52 -1 66
-4 61 -13 -6 -10 -5 -10 7 -1 8 7 42 13 76 15 33 2 59 6 56 11 -4 6 28 11 79
11 9 0 15 3 13 7 -3 4 7 10 23 14 46 11 144 61 210 108 171 119 288 280 344
472 20 68 23 103 23 235 0 135 -3 165 -24 230 -24 77 -76 200 -89 210 -4 3
-14 19 -22 35 -24 47 -192 208 -257 246 -74 43 -137 73 -188 89 -22 7 -49 16
-60 21 -41 16 -294 36 -306 25z m57 -43 c-5 -15 -3 -14 10 2 11 14 18 16 21 7
3 -6 10 -9 16 -5 28 17 263 -26 279 -51 4 -6 8 -7 8 -3 0 4 10 2 23 -5 12 -7
25 -12 29 -13 4 0 13 -6 20 -12 6 -7 18 -13 25 -13 7 0 21 -6 30 -14 10 -8 46
-36 81 -61 34 -26 59 -51 56 -57 -4 -6 -2 -8 4 -4 17 10 43 -23 37 -48 -2 -11
-2 -15 1 -7 5 10 17 2 45 -30 21 -24 39 -48 39 -52 0 -4 10 -21 21 -36 12 -16
18 -34 14 -40 -3 -7 -1 -10 6 -9 7 2 14 -1 14 -7 1 -5 7 -23 14 -40 20 -47 39
-107 46 -140 18 -92 25 -184 13 -191 -4 -3 -5 -11 -1 -17 8 -13 4 -90 -5 -97
-4 -3 -8 -23 -10 -45 -2 -22 -7 -42 -11 -45 -4 -3 -8 -16 -9 -30 0 -14 -6 -26
-12 -28 -5 -2 -8 -7 -5 -11 2 -5 -4 -27 -15 -49 -11 -23 -20 -46 -20 -51 0 -6
-8 -15 -17 -20 -10 -6 -14 -11 -10 -11 5 0 -2 -15 -14 -33 -32 -45 -46 -57
-53 -49 -4 3 -4 -1 -1 -9 4 -10 -12 -34 -47 -70 -78 -80 -84 -84 -105 -68 -16
12 -17 12 -5 -2 10 -13 9 -19 -3 -29 -9 -7 -18 -10 -22 -6 -3 3 -12 -3 -20
-14 -8 -11 -21 -20 -29 -20 -8 0 -14 -3 -14 -8 0 -4 -12 -12 -27 -18 -47 -19
-98 -39 -103 -40 -3 0 -12 -3 -20 -7 -40 -15 -73 -17 -88 -5 -15 12 -16 11 -3
-5 13 -16 11 -18 -15 -17 -16 0 -63 -2 -104 -5 -265 -15 -529 105 -690 315
-19 25 -37 47 -41 50 -18 14 -91 187 -110 260 -42 163 -24 378 44 530 36 80
124 205 185 261 77 71 100 89 111 89 5 0 16 6 24 14 21 21 137 77 147 71 4 -3
10 -1 12 5 2 6 17 11 35 13 17 1 29 5 26 10 -2 4 7 7 20 7 13 0 27 3 30 7 4 3
32 8 62 10 41 3 55 1 55 -9 0 -8 4 -6 11 5 5 9 13 17 16 17 3 0 2 -8 -1 -17z"/>
<path d="M902 1363 c-8 -7 -27 -16 -43 -20 -16 -3 -27 -9 -24 -12 4 -7 -52
-45 -67 -46 -3 0 -10 -4 -15 -9 -5 -5 -3 -6 5 -2 14 9 16 -3 2 -24 -6 -10 -10
-11 -10 -2 0 6 -4 12 -10 12 -5 0 -7 -7 -4 -15 5 -11 2 -14 -12 -9 -17 6 -17
5 1 -10 11 -10 14 -14 6 -10 -11 5 -13 3 -8 -10 5 -12 2 -16 -10 -14 -10 2
-18 -4 -19 -15 -1 -12 -1 -13 3 -2 7 22 22 8 16 -15 -4 -14 -12 -19 -27 -16
-11 2 -15 1 -8 -1 6 -3 12 -9 12 -14 0 -6 4 -7 10 -4 6 4 7 -2 2 -17 -5 -13
-8 -40 -7 -61 1 -25 -2 -36 -10 -33 -7 2 -18 0 -26 -5 -12 -8 -12 -10 1 -8 8
1 21 1 28 0 14 -1 16 -47 2 -56 -5 -3 -10 -12 -9 -18 0 -9 2 -9 6 1 2 6 9 12
15 12 7 0 6 -5 -1 -14 -6 -7 -9 -21 -5 -30 3 -9 0 -24 -7 -33 -8 -9 -9 -14 -4
-11 14 9 16 -133 3 -150 -6 -7 -8 -15 -4 -19 3 -3 6 -1 6 5 0 7 5 12 12 12 9
0 9 -3 1 -11 -6 -6 -8 -30 -5 -56 3 -33 2 -44 -6 -39 -8 5 -10 1 -5 -10 5 -12
3 -15 -6 -9 -10 6 -11 3 -2 -14 13 -24 23 -29 15 -7 -3 8 -1 17 5 21 11 6 16
-14 11 -45 -1 -11 2 -10 12 4 12 16 16 16 29 4 8 -8 22 -17 33 -21 16 -6 16
-10 5 -25 -13 -15 -12 -16 4 -3 15 12 22 12 42 1 13 -7 22 -17 19 -21 -3 -5
10 -2 28 7 18 8 41 17 51 21 9 3 17 9 17 13 0 4 8 10 18 14 9 3 31 13 47 23
30 18 30 18 29 108 0 110 4 135 25 142 86 28 155 84 194 157 31 60 30 193 -2
255 -28 53 -76 103 -119 122 -18 7 -32 17 -32 20 0 7 -99 24 -115 20 -27 -7
-71 -7 -75 -1 -3 4 -11 1 -18 -7z"/>
<path d="M655 1211 c-3 -5 -2 -12 3 -15 5 -3 9 1 9 9 0 17 -3 19 -12 6z"/>
<path d="M668 1113 c19 -7 14 -23 -5 -17 -15 5 -16 4 -3 -5 10 -7 11 -11 3
-11 -7 0 -13 -5 -13 -12 0 -7 9 -3 21 9 21 21 19 44 -4 42 -9 0 -9 -2 1 -6z"/>
<path d="M1705 1110 c-3 -6 1 -7 9 -4 18 7 21 14 7 14 -6 0 -13 -4 -16 -10z"/>
<path d="M670 1045 c0 -8 2 -15 4 -15 2 0 6 7 10 15 3 8 1 15 -4 15 -6 0 -10
-7 -10 -15z"/>
<path d="M673 975 c4 -8 2 -17 -3 -20 -6 -4 -10 -12 -10 -18 1 -14 23 22 26
41 1 6 -2 12 -8 12 -6 0 -8 -7 -5 -15z"/>
<path d="M662 906 c10 -7 15 -16 11 -19 -3 -4 -1 -7 5 -7 7 0 12 4 12 8 0 12
-22 32 -34 32 -6 0 -3 -7 6 -14z"/>
<path d="M635 871 c-3 -7 0 -8 9 -5 12 4 14 0 10 -21 -3 -17 -1 -24 6 -20 12
8 7 48 -7 52 -6 2 -14 -1 -18 -6z"/>
<path d="M1735 870 c-3 -5 -1 -10 4 -10 6 0 11 5 11 10 0 6 -2 10 -4 10 -3 0
-8 -4 -11 -10z"/>
<path d="M670 805 c0 -8 4 -15 8 -15 5 0 9 7 9 15 0 8 -4 15 -9 15 -4 0 -8 -7
-8 -15z"/>
<path d="M1716 777 c3 -10 9 -15 12 -12 3 3 0 11 -7 18 -10 9 -11 8 -5 -6z"/>
<path d="M660 770 c-12 -7 -10 -9 7 -7 12 0 19 5 17 9 -6 10 -6 10 -24 -2z"/>
<path d="M673 735 c4 -8 2 -17 -3 -20 -6 -4 -10 -12 -10 -18 1 -14 23 22 26
41 1 6 -2 12 -8 12 -6 0 -8 -7 -5 -15z"/>
<path d="M639 728 c-6 -21 -5 -37 2 -32 5 3 7 9 4 14 -3 4 1 11 7 13 10 4 10
6 1 6 -7 1 -13 0 -14 -1z"/>
<path d="M1679 683 c-13 -16 -12 -17 4 -4 16 13 21 21 13 21 -2 0 -10 -8 -17
-17z"/>
<path d="M1710 689 c0 -5 5 -7 10 -4 6 3 10 8 10 11 0 2 -4 4 -10 4 -5 0 -10
-5 -10 -11z"/>
<path d="M664 665 c17 -13 17 -15 3 -30 -9 -8 -14 -22 -11 -30 4 -10 0 -13
-15 -10 -12 2 -19 0 -16 -5 8 -13 40 -5 41 11 3 31 5 33 14 19 7 -11 9 -9 8
10 -2 29 -15 50 -32 50 -6 0 -3 -7 8 -15z"/>
<path d="M616 643 c-6 -14 -5 -15 5 -6 7 7 10 15 7 18 -3 3 -9 -2 -12 -12z"/>
<path d="M1615 510 c-3 -5 -1 -10 4 -10 6 0 11 5 11 10 0 6 -2 10 -4 10 -3 0
-8 -4 -11 -10z"/>
<path d="M755 501 c-3 -5 0 -13 6 -17 7 -4 9 -3 5 4 -3 5 0 13 6 15 9 4 10 6
1 6 -6 1 -14 -3 -18 -8z"/>
<path d="M1575 410 c-3 -5 -1 -10 4 -10 6 0 11 5 11 10 0 6 -2 10 -4 10 -3 0
-8 -4 -11 -10z"/>
<path d="M1486 348 c3 -5 10 -6 15 -3 13 9 11 12 -6 12 -8 0 -12 -4 -9 -9z"/>
<path d="M113 1285 c0 -8 4 -12 9 -9 5 3 6 10 3 15 -9 13 -12 11 -12 -6z"/>
<path d="M86 1148 c3 -5 10 -6 15 -3 13 9 11 12 -6 12 -8 0 -12 -4 -9 -9z"/>
<path d="M55 910 c-3 -5 -1 -10 4 -10 6 0 11 5 11 10 0 6 -2 10 -4 10 -3 0 -8
-4 -11 -10z"/>
<path d="M55 790 c-3 -5 -1 -10 4 -10 6 0 11 5 11 10 0 6 -2 10 -4 10 -3 0 -8
-4 -11 -10z"/>
<path d="M53 755 c0 -8 4 -12 9 -9 5 3 6 10 3 15 -9 13 -12 11 -12 -6z"/>
<path d="M55 710 c-3 -5 -1 -10 4 -10 6 0 11 5 11 10 0 6 -2 10 -4 10 -3 0 -8
-4 -11 -10z"/>
<path d="M75 650 c-3 -5 -1 -10 4 -10 6 0 11 5 11 10 0 6 -2 10 -4 10 -3 0 -8
-4 -11 -10z"/>
<path d="M130 550 c0 -5 5 -10 11 -10 5 0 7 5 4 10 -3 6 -8 10 -11 10 -2 0 -4
-4 -4 -10z"/>
<path d="M130 509 c0 -5 5 -7 10 -4 6 3 10 8 10 11 0 2 -4 4 -10 4 -5 0 -10
-5 -10 -11z"/>
<path d="M180 430 c8 -5 20 -10 25 -10 6 0 3 5 -5 10 -8 5 -19 10 -25 10 -5 0
-3 -5 5 -10z"/>
<path d="M190 371 c0 -6 4 -13 10 -16 6 -3 7 1 4 9 -7 18 -14 21 -14 7z"/>
<path d="M290 329 c0 -5 5 -7 10 -4 6 3 10 8 10 11 0 2 -4 4 -10 4 -5 0 -10
-5 -10 -11z"/>
<path d="M426 192 c-3 -5 1 -9 9 -9 8 0 12 4 9 9 -3 4 -7 8 -9 8 -2 0 -6 -4
-9 -8z"/>
<path d="M495 150 c-3 -5 -1 -10 4 -10 6 0 11 5 11 10 0 6 -2 10 -4 10 -3 0
-8 -4 -11 -10z"/>
</g>
</svg>
